<?xml version="1.0" encoding="UTF-8" standalone="no"?>
<!DOCTYPE svg PUBLIC "-//W3C//DTD SVG 1.1//EN" "http://www.w3.org/Graphics/SVG/1.1/DTD/svg11.dtd">
<svg width="100%" height="100%" viewBox="0 0 1024 1024" version="1.1" xmlns="http://www.w3.org/2000/svg"
    xmlns:xlink="http://www.w3.org/1999/xlink" xml:space="preserve" xmlns:serif="http://www.serif.com/"
    style="fill-rule:evenodd;clip-rule:evenodd;stroke-linejoin:round;stroke-miterlimit:2;">
    <g transform="matrix(1.03416,0,0,1,-50.766,0)">
        <path
            d="M894.217,42.566L894.217,981.434C894.217,1004.93 875.775,1024 853.058,1024L235.293,1024C212.577,1024 194.134,1004.93 194.134,981.434L194.134,42.566C194.134,19.073 212.577,0 235.293,0L853.058,0C875.775,0 894.217,19.073 894.217,42.566ZM544.176,909.71C587.498,909.71 625.316,904.018 657.63,892.634C689.944,881.25 717.109,865.642 739.125,845.812C761.141,825.982 777.653,802.479 788.661,775.304C799.669,748.129 805.173,718.75 805.173,687.169C805.173,634.288 791.325,592.423 763.627,561.576C735.929,530.729 699.354,509.062 653.901,496.576L653.901,487.763C693.672,473.808 725.099,451.223 748.18,420.009C771.262,388.794 782.802,351.153 782.802,307.086C782.802,248.329 761.851,201.507 719.95,166.62C678.048,131.733 619.457,114.29 544.176,114.29C468.895,114.29 410.303,131.733 368.402,166.62C326.5,201.507 305.549,248.329 305.549,307.086C305.549,351.153 317.09,388.794 340.171,420.009C363.253,451.223 394.679,473.808 434.45,487.763L434.45,496.576C388.997,509.062 352.422,530.729 324.725,561.576C297.027,592.423 283.178,634.288 283.178,687.169C283.178,718.75 288.682,748.129 299.69,775.304C310.698,802.479 327.033,825.982 348.694,845.812C370.355,865.642 397.52,881.25 430.189,892.634C462.858,904.018 500.854,909.71 544.176,909.71ZM544.176,831.49C491.621,831.49 450.43,819.371 420.601,795.134C390.773,770.897 375.859,736.745 375.859,692.677L375.859,668.44C375.859,624.372 390.595,590.22 420.069,565.983C449.542,541.746 490.911,529.627 544.176,529.627C597.441,529.627 638.81,541.746 668.283,565.983C697.756,590.22 712.493,624.372 712.493,668.44L712.493,692.677C712.493,736.745 697.578,770.897 667.75,795.134C637.922,819.371 596.73,831.49 544.176,831.49ZM544.176,454.712C495.882,454.712 459.13,444.062 433.917,422.763C408.705,401.464 396.099,370.984 396.099,331.323L396.099,315.899C396.099,276.238 409.061,245.758 434.983,224.459C460.905,203.16 497.303,192.51 544.176,192.51C591.049,192.51 627.446,203.16 653.369,224.459C679.291,245.758 692.252,276.238 692.252,315.899L692.252,331.323C692.252,370.984 679.646,401.464 654.434,422.763C629.222,444.062 592.469,454.712 544.176,454.712Z"
            style="fill:rgb(0,255,255);" />
    </g>
    <g transform="matrix(1.5,0,0,0.979285,0,4.52489)">
        <path
            d="M100,69.41L100,222.583L20,222.583C8.962,222.583 0,208.856 0,191.948L0,100.044C0,83.137 8.962,69.41 20,69.41L100,69.41Z"
            style="fill:rgb(0,255,255);" />
    </g>
    <g transform="matrix(1.5,0,0,0.979285,0,247.527)">
        <path
            d="M100,69.41L100,222.583L20,222.583C8.962,222.583 0,208.856 0,191.948L0,100.044C0,83.137 8.962,69.41 20,69.41L100,69.41Z"
            style="fill:rgb(0,255,255);" />
    </g>
    <g transform="matrix(1.5,0,0,0.979285,0,490.529)">
        <path
            d="M100,69.41L100,222.583L20,222.583C8.962,222.583 0,208.856 0,191.948L0,100.044C0,83.137 8.962,69.41 20,69.41L100,69.41Z"
            style="fill:rgb(0,255,255);" />
    </g>
    <g transform="matrix(1.5,0,0,0.979285,0,733.531)">
        <path
            d="M100,69.41L100,222.583L20,222.583C8.962,222.583 0,208.856 0,191.948L0,100.044C0,83.137 8.962,69.41 20,69.41L100,69.41Z"
            style="fill:rgb(0,255,255);" />
    </g>
    <g transform="matrix(-1.5,-1.83697e-16,1.19928e-16,-0.979285,1024,1019.48)">
        <path
            d="M100,69.41L100,222.583L20,222.583C8.962,222.583 0,208.856 0,191.948L0,100.044C0,83.137 8.962,69.41 20,69.41L100,69.41Z"
            style="fill:rgb(0,255,255);" />
    </g>
    <g transform="matrix(-1.5,-1.83697e-16,1.19928e-16,-0.979285,1024,776.473)">
        <path
            d="M100,69.41L100,222.583L20,222.583C8.962,222.583 0,208.856 0,191.948L0,100.044C0,83.137 8.962,69.41 20,69.41L100,69.41Z"
            style="fill:rgb(0,255,255);" />
    </g>
    <g transform="matrix(-1.5,-1.83697e-16,1.19928e-16,-0.979285,1024,533.471)">
        <path
            d="M100,69.41L100,222.583L20,222.583C8.962,222.583 0,208.856 0,191.948L0,100.044C0,83.137 8.962,69.41 20,69.41L100,69.41Z"
            style="fill:rgb(0,255,255);" />
    </g>
    <g transform="matrix(-1.5,-1.83697e-16,1.19928e-16,-0.979285,1024,290.469)">
        <path
            d="M100,69.41L100,222.583L20,222.583C8.962,222.583 0,208.856 0,191.948L0,100.044C0,83.137 8.962,69.41 20,69.41L100,69.41Z"
            style="fill:rgb(0,255,255);" />
    </g>
</svg>