<svg width="1024" height="1024" viewBox="0 0 270.933 270.933" xmlns="http://www.w3.org/2000/svg">
  <path
    d="M50.95 0c-6.216 0-11.263 5.047-11.263 11.262v7.92H7.937A7.941 7.941 0 000 27.118V50.93a7.942 7.942 0 007.937 7.938h31.75v24.607H7.937A7.941 7.941 0 000 91.413v23.813a7.942 7.942 0 007.937 7.938h31.75v24.606H7.937A7.941 7.941 0 000 155.707v23.813a7.942 7.942 0 007.937 7.938h31.75v24.607H7.937A7.941 7.941 0 000 220.002v23.812a7.942 7.942 0 007.937 7.938h31.75v7.919c0 6.217 5.047 11.262 11.262 11.262h169.034c6.216 0 11.262-5.045 11.262-11.262V11.262C231.245 5.047 226.2 0 219.983 0zm180.296 19.181V58.87h31.75a7.941 7.941 0 007.937-7.937V27.119a7.942 7.942 0 00-7.937-7.938zM116.662 42.764h58.534l18.806 28.34v36.022l-23.838 24.897 23.838 35.227v29.135l-30.195 31.784H98.386l-21.454-31.784v-32.578l24.632-24.897h-2.913l-21.72-31.784V84.083zm8.21 19.07l-26.75 27.281v15.363l10.329 15.097h46.35l17.747-17.481v-28.34l-7.946-11.92zm106.374 21.642v39.687h31.75a7.941 7.941 0 007.937-7.937V91.414a7.942 7.942 0 00-7.937-7.938zm-103.99 55.434L98.12 169.369v24.367l10.33 15.363h46.35l17.747-17.746v-21.454l-20.925-30.99zm103.99 8.86v39.687h31.75a7.941 7.941 0 007.937-7.937v-23.812a7.942 7.942 0 00-7.937-7.938zm0 64.296v39.687h31.75a7.941 7.941 0 007.937-7.937v-23.813a7.941 7.941 0 00-7.937-7.937z"
    clip-rule="evenodd" fill="#00ffc0" fill-rule="evenodd" stroke-linejoin="round" stroke-miterlimit="2" />
</svg>